<svg width="44" height="44" viewBox="0 0 44 44" fill="none" xmlns="http://www.w3.org/2000/svg">
<path d="M28.4898 29.8882C28.3645 27.6708 27.0997 26.9669 25.25 26.3503C23.8367 25.8796 23.4477 24.3957 23.3409 23.6083" stroke="white" stroke-width="2.22857" stroke-miterlimit="10"/>
<path d="M20.6582 23.6074C20.5533 24.3911 20.1716 25.8768 18.75 26.3504C16.9003 26.9669 15.6337 27.6689 15.5084 29.8864" stroke="white" stroke-width="2.22857" stroke-miterlimit="10"/>
<path d="M22 23.8571C19.9488 23.8571 18.2857 22.1941 18.2857 20.1429V19.2143C18.2857 17.1631 19.9488 15.5 22 15.5C24.0512 15.5 25.7143 17.1631 25.7143 19.2143L25.7143 20.1429C25.7143 22.1941 24.0512 23.8571 22 23.8571Z" stroke="white" stroke-width="2.22857" stroke-miterlimit="10" stroke-linecap="square"/>
<path d="M22 32.2143C27.6412 32.2143 32.2143 27.6412 32.2143 22C32.2143 16.3588 27.6412 11.7857 22 11.7857C16.3588 11.7857 11.7857 16.3588 11.7857 22C11.7857 27.6412 16.3588 32.2143 22 32.2143Z" stroke="white" stroke-width="2.22857" stroke-miterlimit="10" stroke-linecap="square"/>
</svg>
